<?xml version="1.0" encoding="UTF-8"?>
<!-- Generator: visioncortex VTracer 0.6.4 -->
<svg version="1.1" xmlns="http://www.w3.org/2000/svg" width="1241" height="1313">
<path d="M0 0 C13.31 11.61 18.89 24.65 23.71 41.54 C23.71 58.7 23.71 75.86 23.71 93.54 C203.23 93.54 382.75 93.54 567.71 93.54 C567.71 77.04 567.71 60.54 567.71 43.54 C571.23 28.33 571.23 28.33 574.34 22.41 C574.69 21.74 575.04 21.07 575.39 20.38 C584.2 3.96 598.93 -7.7 616.78 -13.08 C636 -17.91 655.87 -14.46 672.8 -4.67 C687.83 4.85 696.96 20.11 702.14 36.76 C703.74 44.47 703.86 52.3 703.81 60.14 C703.81 61.1 703.81 62.07 703.81 63.06 C703.8 66.09 703.79 69.13 703.78 72.16 C703.77 74.24 703.77 76.31 703.76 78.39 C703.75 83.44 703.74 88.49 703.71 93.54 C704.6 93.53 705.48 93.53 706.4 93.52 C714.82 93.46 723.25 93.41 731.68 93.38 C736.01 93.37 740.34 93.35 744.67 93.31 C793.01 92.94 831.73 102.95 868.71 135.54 C869.42 136.16 870.13 136.78 870.86 137.42 C890.61 155.97 903.6 181.49 910.59 207.35 C910.88 208.41 910.88 208.41 911.17 209.48 C914.35 222.15 915.01 234.88 914.97 247.87 C914.97 249.47 914.97 251.07 914.98 252.67 C914.99 257.05 914.98 261.42 914.98 265.79 C914.97 270.56 914.98 275.32 914.99 280.09 C915 288.43 915 296.78 914.99 305.12 C914.99 317.53 914.99 329.94 915 342.35 C915.02 365.8 915.02 389.26 915.02 412.71 C915.02 430.82 915.02 448.93 915.02 467.04 C915.02 469.65 915.02 472.25 915.02 474.85 C915.02 478.77 915.03 482.69 915.03 486.62 C915.03 523.08 915.04 559.54 915.03 596 C915.03 596.69 915.03 597.37 915.03 598.08 C915.03 605.74 915.03 613.4 915.03 621.06 C915.03 621.75 915.03 622.44 915.03 623.16 C915.03 628.9 915.03 628.9 915.03 631.55 C915.02 675.78 915.03 720.01 915.05 764.24 C915.06 775.38 915.06 786.53 915.06 797.68 C915.07 798.36 915.07 799.05 915.07 799.76 C915.07 820.92 915.08 842.08 915.08 863.24 C915.08 863.9 915.08 864.57 915.08 865.25 C915.08 880.5 915.08 895.74 915.08 910.99 C915.08 916.2 915.08 921.42 915.08 926.63 C915.08 928.56 915.08 928.56 915.08 930.53 C915.08 949.91 915.08 969.29 915.09 988.68 C915.11 1010.72 915.11 1032.77 915.09 1054.81 C915.09 1067.15 915.09 1079.48 915.1 1091.81 C915.11 1100.06 915.11 1108.3 915.1 1116.55 C915.09 1121.24 915.09 1125.93 915.1 1130.63 C915.11 1134.91 915.11 1139.19 915.09 1143.47 C915.09 1144.99 915.09 1146.52 915.1 1148.05 C915.17 1162.56 913.33 1176.85 908.96 1190.73 C908.71 1191.56 908.45 1192.39 908.19 1193.25 C905.7 1201.03 902.51 1208.31 898.71 1215.54 C898.38 1216.19 898.04 1216.85 897.69 1217.52 C879.14 1253.01 847.17 1279.65 809.03 1291.91 C792.07 1297.11 775.29 1298.69 757.61 1298.67 C755.98 1298.67 754.34 1298.67 752.71 1298.68 C748.21 1298.68 743.72 1298.68 739.22 1298.68 C734.33 1298.68 729.44 1298.68 724.55 1298.69 C714.85 1298.7 705.15 1298.7 695.45 1298.7 C683.83 1298.7 672.21 1298.71 660.59 1298.71 C632.51 1298.73 604.43 1298.74 576.35 1298.74 C563.07 1298.74 549.78 1298.75 536.49 1298.75 C491.72 1298.76 446.95 1298.77 402.18 1298.78 C400.04 1298.78 397.9 1298.78 395.76 1298.78 C391.47 1298.78 387.18 1298.78 382.89 1298.78 C377.87 1298.78 372.85 1298.78 367.82 1298.78 C366.39 1298.78 364.95 1298.78 363.51 1298.78 C317.35 1298.78 271.2 1298.8 225.04 1298.82 C191.87 1298.84 158.7 1298.85 125.53 1298.86 C124.51 1298.86 124.51 1298.86 123.46 1298.86 C108.47 1298.86 93.49 1298.86 78.5 1298.86 C73.13 1298.86 67.77 1298.86 62.41 1298.86 C60.41 1298.86 58.41 1298.86 56.41 1298.86 C35.18 1298.86 13.96 1298.87 -7.26 1298.89 C-28.6 1298.9 -49.94 1298.91 -71.28 1298.9 C-83.95 1298.89 -96.62 1298.9 -109.29 1298.91 C-117.76 1298.92 -126.23 1298.92 -134.71 1298.91 C-139.53 1298.91 -144.35 1298.91 -149.17 1298.92 C-193.71 1299.03 -193.71 1299.03 -213.97 1292.85 C-214.83 1292.6 -215.68 1292.34 -216.57 1292.08 C-237.09 1285.75 -254.9 1275.27 -271.29 1261.54 C-272.66 1260.39 -272.66 1260.39 -274.07 1259.23 C-280.24 1253.89 -285.31 1247.98 -290.29 1241.54 C-291.4 1240.15 -291.4 1240.15 -292.53 1238.73 C-308.25 1218.63 -318.38 1194.32 -322.1 1169.1 C-322.21 1168.35 -322.32 1167.61 -322.44 1166.84 C-325.13 1146.08 -324.43 1124.87 -324.42 1103.99 C-324.42 1099.43 -324.42 1094.88 -324.43 1090.32 C-324.43 1082.35 -324.43 1074.39 -324.43 1066.42 C-324.43 1054.57 -324.43 1042.72 -324.44 1030.87 C-324.45 1008.47 -324.45 986.08 -324.45 963.68 C-324.45 946.38 -324.45 929.08 -324.46 911.79 C-324.46 906.8 -324.46 901.82 -324.46 896.83 C-324.46 895.59 -324.46 894.35 -324.46 893.07 C-324.47 858.23 -324.47 823.39 -324.47 788.54 C-324.47 787.23 -324.47 785.92 -324.47 784.56 C-324.47 777.91 -324.47 771.26 -324.47 764.61 C-324.47 762.6 -324.47 760.6 -324.47 758.6 C-324.47 757.26 -324.47 755.93 -324.47 754.59 C-324.47 712.35 -324.48 670.11 -324.49 627.87 C-324.51 581.13 -324.51 534.39 -324.51 487.65 C-324.51 482.67 -324.51 477.68 -324.51 472.69 C-324.51 471.46 -324.51 470.24 -324.51 468.97 C-324.51 449.24 -324.52 429.51 -324.53 409.78 C-324.54 389.95 -324.54 370.11 -324.53 350.28 C-324.53 338.5 -324.53 326.73 -324.54 314.96 C-324.55 307.08 -324.54 299.2 -324.54 291.33 C-324.53 286.85 -324.53 282.37 -324.54 277.89 C-324.63 223.75 -317.63 176.06 -277.78 135.99 C-273.53 131.86 -268.99 128.14 -264.29 124.54 C-263.33 123.8 -262.37 123.07 -261.38 122.31 C-237.62 105.01 -208.14 93.38 -178.49 93.43 C-177.39 93.43 -177.39 93.43 -176.27 93.43 C-173.88 93.43 -171.49 93.43 -169.1 93.44 C-167.43 93.44 -165.76 93.44 -164.09 93.45 C-159.71 93.45 -155.34 93.46 -150.97 93.47 C-146.5 93.48 -142.03 93.49 -137.55 93.49 C-128.8 93.5 -120.04 93.52 -111.29 93.54 C-111.3 92.92 -111.31 92.31 -111.32 91.67 C-111.43 85.18 -111.51 78.69 -111.56 72.2 C-111.58 69.79 -111.62 67.38 -111.66 64.96 C-111.91 50.92 -111.83 38.61 -106.29 25.54 C-105.89 24.57 -105.49 23.61 -105.07 22.61 C-97.47 5.16 -81.63 -5.74 -64.54 -12.56 C-42.68 -19.39 -17.79 -13.94 0 0 Z " fill="#FEFEFE" transform="translate(324.28515625,14.4609375)"/>
<path d="M0 0 C13.31 11.61 18.89 24.65 23.71 41.54 C23.71 58.7 23.71 75.86 23.71 93.54 C203.23 93.54 382.75 93.54 567.71 93.54 C567.71 77.04 567.71 60.54 567.71 43.54 C571.23 28.33 571.23 28.33 574.34 22.41 C574.69 21.74 575.04 21.07 575.39 20.38 C584.2 3.96 598.93 -7.7 616.78 -13.08 C636 -17.91 655.87 -14.46 672.8 -4.67 C687.83 4.85 696.96 20.11 702.14 36.76 C703.74 44.47 703.86 52.3 703.81 60.14 C703.81 61.1 703.81 62.07 703.81 63.06 C703.8 66.09 703.79 69.13 703.78 72.16 C703.77 74.24 703.77 76.31 703.76 78.39 C703.75 83.44 703.74 88.49 703.71 93.54 C704.6 93.53 705.48 93.53 706.4 93.52 C714.82 93.46 723.25 93.41 731.68 93.38 C736.01 93.37 740.34 93.35 744.67 93.31 C793.01 92.94 831.73 102.95 868.71 135.54 C869.42 136.16 870.13 136.78 870.86 137.42 C890.61 155.97 903.6 181.49 910.59 207.35 C910.88 208.41 910.88 208.41 911.17 209.48 C924.51 262.53 914.71 318.84 914.71 373.54 C506.5 373.54 98.29 373.54 -322.29 373.54 C-323.36 219.77 -323.36 219.77 -317.79 201.79 C-317.54 200.99 -317.29 200.18 -317.04 199.36 C-312.15 184.25 -304.9 169.21 -295.29 156.54 C-294.66 155.71 -294.04 154.88 -293.4 154.03 C-267.83 121.06 -231.9 99.84 -190.56 94.01 C-186.53 93.52 -182.56 93.42 -178.49 93.43 C-177.39 93.43 -177.39 93.43 -176.27 93.43 C-173.88 93.43 -171.49 93.43 -169.1 93.44 C-167.43 93.44 -165.76 93.44 -164.09 93.45 C-159.71 93.45 -155.34 93.46 -150.97 93.47 C-146.5 93.48 -142.03 93.49 -137.55 93.49 C-128.8 93.5 -120.04 93.52 -111.29 93.54 C-111.3 92.92 -111.31 92.31 -111.32 91.67 C-111.43 85.18 -111.51 78.69 -111.56 72.2 C-111.58 69.79 -111.62 67.38 -111.66 64.96 C-111.91 50.92 -111.83 38.61 -106.29 25.54 C-105.89 24.57 -105.49 23.61 -105.07 22.61 C-97.47 5.16 -81.63 -5.74 -64.54 -12.56 C-42.68 -19.39 -17.79 -13.94 0 0 Z " fill="#001B60" transform="translate(324.28515625,14.4609375)"/>
<path d="M0 0 C0.33 0 0.66 0 1 0 C1 43.56 1 87.12 1 132 C409.21 132 817.42 132 1238 132 C1238.06 261.81 1238.12 391.63 1238.19 525.38 C1238.21 566.4 1238.24 607.43 1238.27 649.7 C1238.28 699.7 1238.28 699.7 1238.29 723.09 C1238.29 740.55 1238.3 758 1238.32 775.46 C1238.34 793.26 1238.34 811.07 1238.34 828.87 C1238.34 839.45 1238.34 850.03 1238.36 860.62 C1238.37 867.61 1238.37 874.6 1238.37 881.6 C1238.36 885.58 1238.36 889.56 1238.37 893.54 C1238.44 912.6 1238.02 930.84 1232.25 949.19 C1231.99 950.02 1231.74 950.85 1231.47 951.71 C1228.98 959.49 1225.8 966.77 1222 974 C1221.66 974.65 1221.32 975.31 1220.97 975.98 C1202.42 1011.47 1170.46 1038.11 1132.31 1050.38 C1115.35 1055.57 1098.57 1057.15 1080.9 1057.13 C1079.26 1057.13 1077.63 1057.14 1075.99 1057.14 C1071.5 1057.14 1067 1057.14 1062.51 1057.14 C1057.62 1057.14 1052.72 1057.15 1047.83 1057.15 C1038.13 1057.16 1028.43 1057.16 1018.74 1057.16 C1007.12 1057.16 995.5 1057.17 983.88 1057.17 C955.8 1057.19 927.72 1057.2 899.64 1057.2 C886.35 1057.2 873.06 1057.21 859.78 1057.21 C815.01 1057.22 770.24 1057.23 725.46 1057.24 C723.32 1057.24 721.19 1057.24 719.05 1057.24 C714.76 1057.24 710.47 1057.24 706.18 1057.24 C701.15 1057.24 696.13 1057.24 691.11 1057.24 C689.67 1057.24 688.23 1057.24 686.8 1057.24 C640.64 1057.24 594.48 1057.26 548.33 1057.28 C515.16 1057.3 481.99 1057.31 448.81 1057.32 C447.79 1057.32 447.79 1057.32 446.75 1057.32 C431.76 1057.32 416.77 1057.32 401.78 1057.32 C396.42 1057.32 391.06 1057.32 385.69 1057.32 C383.69 1057.32 381.69 1057.32 379.69 1057.32 C358.47 1057.32 337.24 1057.34 316.02 1057.35 C294.68 1057.36 273.35 1057.37 252.01 1057.36 C239.34 1057.36 226.67 1057.36 214 1057.38 C205.52 1057.39 197.05 1057.38 188.58 1057.37 C183.76 1057.37 178.94 1057.37 174.11 1057.38 C129.58 1057.49 129.58 1057.49 109.31 1051.31 C108.46 1051.06 107.6 1050.8 106.72 1050.54 C86.2 1044.21 68.39 1033.73 52 1020 C51.08 1019.24 50.16 1018.47 49.22 1017.69 C43.05 1012.35 37.98 1006.45 33 1000 C31.89 998.61 31.89 998.61 30.75 997.2 C15.04 977.09 4.9 952.78 1.19 927.56 C1.08 926.81 0.96 926.07 0.85 925.3 C-1.85 904.5 -1.15 883.26 -1.13 862.33 C-1.13 857.76 -1.13 853.19 -1.13 848.61 C-1.14 840.62 -1.14 832.62 -1.13 824.62 C-1.13 812.73 -1.13 800.84 -1.13 788.95 C-1.14 767.71 -1.14 746.47 -1.14 725.24 C-1.13 706.66 -1.13 688.08 -1.13 669.51 C-1.13 668.28 -1.13 667.04 -1.13 665.77 C-1.13 660.77 -1.13 655.76 -1.14 650.76 C-1.14 604.51 -1.14 558.26 -1.13 512.01 C-1.13 469.64 -1.13 427.27 -1.13 384.9 C-1.14 338.04 -1.14 291.18 -1.13 244.32 C-1.13 239.33 -1.13 234.34 -1.13 229.35 C-1.13 228.12 -1.13 226.89 -1.13 225.63 C-1.13 207.05 -1.13 188.47 -1.14 169.9 C-1.14 148.79 -1.14 127.69 -1.13 106.58 C-1.13 94.76 -1.13 82.94 -1.13 71.12 C-1.14 63.24 -1.13 55.36 -1.13 47.47 C-1.13 42.97 -1.13 38.48 -1.13 33.98 C-1.13 29.89 -1.13 25.8 -1.13 21.71 C-1.13 20.24 -1.13 18.77 -1.13 17.29 C-1.13 15.3 -1.13 13.3 -1.13 11.31 C-1.13 10.2 -1.13 9.1 -1.13 7.96 C-1.01 5.19 -0.63 2.69 0 0 Z M37 217 C36.94 332.36 36.88 447.71 36.81 566.56 C36.79 603.02 36.76 639.48 36.73 677.05 C36.72 709.65 36.72 709.65 36.71 742.26 C36.71 757.77 36.7 773.28 36.68 788.8 C36.66 804.62 36.66 820.44 36.66 836.26 C36.66 845.66 36.66 855.07 36.64 864.47 C36.63 870.69 36.63 876.9 36.63 883.11 C36.64 886.65 36.64 890.19 36.63 893.72 C36.48 913.57 36.48 913.57 40 933 C40.23 933.87 40.46 934.75 40.7 935.65 C48.42 963.95 66.99 988.62 92 1004 C111.76 1015.11 131.71 1020.32 154.32 1020.25 C155.97 1020.26 157.61 1020.26 159.26 1020.26 C163.78 1020.27 168.31 1020.27 172.83 1020.26 C177.75 1020.26 182.67 1020.27 187.59 1020.27 C196.22 1020.28 204.84 1020.28 213.47 1020.28 C226.29 1020.27 239.12 1020.28 251.94 1020.29 C276.18 1020.3 300.42 1020.3 324.66 1020.3 C327.33 1020.3 330 1020.3 332.68 1020.3 C333.34 1020.3 334 1020.3 334.68 1020.3 C349.39 1020.3 364.09 1020.3 378.8 1020.31 C382.15 1020.31 385.51 1020.31 388.87 1020.31 C390.22 1020.31 391.57 1020.31 392.91 1020.31 C393.92 1020.31 393.92 1020.31 394.94 1020.31 C396.29 1020.31 397.64 1020.31 398.99 1020.31 C437.34 1020.32 475.68 1020.32 514.02 1020.32 C514.73 1020.32 515.44 1020.32 516.17 1020.32 C524.09 1020.32 532.01 1020.32 539.92 1020.32 C540.99 1020.32 540.99 1020.32 542.09 1020.32 C546.42 1020.32 546.42 1020.32 550.76 1020.32 C596.47 1020.31 642.18 1020.32 687.89 1020.34 C699.41 1020.34 710.92 1020.35 722.44 1020.35 C723.51 1020.35 723.51 1020.35 724.59 1020.35 C746.45 1020.36 768.31 1020.36 790.18 1020.36 C791.21 1020.36 791.21 1020.36 792.26 1020.36 C807.33 1020.37 822.4 1020.36 837.47 1020.36 C842.86 1020.36 848.25 1020.36 853.64 1020.36 C854.99 1020.36 856.33 1020.36 857.67 1020.36 C878.37 1020.36 899.07 1020.37 919.78 1020.38 C942.56 1020.39 965.34 1020.39 988.12 1020.38 C1000.87 1020.37 1013.62 1020.37 1026.37 1020.39 C1034.89 1020.4 1043.41 1020.39 1051.92 1020.38 C1056.78 1020.38 1061.63 1020.37 1066.48 1020.39 C1070.9 1020.4 1075.32 1020.39 1079.74 1020.38 C1081.32 1020.38 1082.91 1020.38 1084.49 1020.39 C1097.85 1020.45 1110.38 1018.63 1123.06 1014.25 C1123.81 1013.99 1124.57 1013.74 1125.34 1013.47 C1154.03 1003.34 1176.85 982.5 1190.18 955.21 C1200.91 932.36 1202.46 910.31 1202.37 885.27 C1202.36 881.71 1202.36 878.14 1202.37 874.58 C1202.37 868.35 1202.37 862.11 1202.36 855.88 C1202.34 846.49 1202.34 837.11 1202.34 827.72 C1202.34 811.98 1202.33 796.25 1202.32 780.51 C1202.29 759.23 1202.29 737.95 1202.28 716.68 C1202.27 665.53 1202.23 614.39 1202.19 563.25 C1202.13 448.99 1202.06 334.73 1202 217 C817.55 217 433.1 217 37 217 Z " fill="#F1B00C" transform="translate(1,256)"/>
<path d="M0 0 C0.33 0 0.66 0 1 0 C1 43.56 1 87.12 1 132 C409.21 132 817.42 132 1238 132 C1238 148.17 1238 164.34 1238 181 C829.46 181 420.92 181 0 181 C0 416.95 0 652.9 0 896 C-0.33 896 -0.66 896 -1 896 C-1.02 811.13 -1.03 726.25 -1.04 641.38 C-1.04 640.12 -1.04 638.87 -1.04 637.57 C-1.05 610.29 -1.05 583.01 -1.05 555.73 C-1.05 543.03 -1.05 530.32 -1.05 517.61 C-1.05 515.6 -1.06 513.58 -1.06 511.56 C-1.06 480.5 -1.06 449.44 -1.07 418.38 C-1.07 417.71 -1.07 417.04 -1.07 416.35 C-1.07 405.58 -1.07 394.81 -1.08 384.04 C-1.09 339.01 -1.09 293.98 -1.09 248.95 C-1.09 242.69 -1.09 236.43 -1.09 230.17 C-1.09 228.32 -1.09 228.32 -1.1 226.44 C-1.1 206.57 -1.1 186.71 -1.11 166.84 C-1.11 146.89 -1.11 126.94 -1.11 106.99 C-1.11 95.12 -1.11 83.26 -1.12 71.39 C-1.12 63.48 -1.12 55.56 -1.12 47.65 C-1.12 43.13 -1.12 38.61 -1.12 34.1 C-1.13 29.99 -1.13 25.89 -1.12 21.78 C-1.12 20.3 -1.12 18.82 -1.13 17.34 C-1.13 15.34 -1.13 13.34 -1.12 11.33 C-1.12 10.22 -1.12 9.11 -1.12 7.97 C-1.01 5.2 -0.63 2.69 0 0 Z " fill="#FDFDFE" transform="translate(1,256)"/>
<path d="M0 0 C13.45 10.69 24.26 26.49 26.52 43.82 C27.18 50.01 27.38 56.11 27.34 62.33 C27.34 63.19 27.34 64.04 27.34 64.92 C27.34 68.07 27.32 71.21 27.31 74.36 C27.29 81.41 27.27 88.46 27.25 95.73 C43.09 95.73 58.93 95.73 75.25 95.73 C75.41 117.39 75.41 117.39 75.44 126.75 C75.47 133.09 75.49 139.43 75.55 145.77 C75.59 150.89 75.62 156.02 75.63 161.14 C75.63 163.08 75.65 165.01 75.67 166.95 C76.05 202.58 64.6 233.11 39.81 258.79 C27.73 270.88 13.39 279.3 -2.75 284.73 C-4.4 285.31 -4.4 285.31 -6.08 285.9 C-33.6 295.07 -64.5 292.62 -90.75 280.73 C-96 278.11 -100.91 275.03 -105.75 271.73 C-106.8 271.02 -107.85 270.31 -108.93 269.58 C-129.99 254.49 -143.35 234.32 -151.63 209.98 C-151.92 209.14 -152.2 208.3 -152.5 207.44 C-156.91 193.83 -157.03 180.59 -156.95 166.44 C-156.95 164.39 -156.94 162.34 -156.94 160.3 C-156.93 154.95 -156.91 149.61 -156.89 144.26 C-156.87 137.83 -156.86 131.39 -156.85 124.96 C-156.83 115.21 -156.79 105.47 -156.75 95.73 C-140.91 95.73 -125.07 95.73 -108.75 95.73 C-108.79 92.27 -108.82 88.81 -108.86 85.25 C-108.88 81.86 -108.9 78.47 -108.92 75.08 C-108.93 72.75 -108.95 70.41 -108.98 68.07 C-109.31 38.23 -109.31 38.23 -102.13 24.61 C-101.78 23.94 -101.43 23.26 -101.08 22.57 C-92.27 6.15 -77.54 -5.5 -59.69 -10.89 C-39.46 -15.97 -16.94 -12.25 0 0 Z " fill="#F1B00C" transform="translate(1000.75390625,12.26806640625)"/>
<path d="M0 0 C12.71 11.09 22.68 27.29 23.92 44.41 C24.21 52.41 24.08 60.41 23.96 68.41 C23.94 70.86 23.93 73.3 23.91 75.74 C23.87 81.67 23.79 87.6 23.71 93.54 C39.55 93.54 55.39 93.54 71.71 93.54 C71.84 116.11 71.84 116.11 71.86 125.82 C71.88 132.41 71.9 139 71.94 145.6 C71.97 150.92 71.99 156.24 72 161.57 C72 163.59 72.02 165.61 72.03 167.62 C72.15 182.63 71.31 196.95 65.96 211.16 C65.71 211.86 65.45 212.56 65.19 213.28 C59.18 229.24 50.38 242.17 38.71 254.54 C37.78 255.57 37.78 255.57 36.82 256.62 C31.18 262.63 24.58 267.07 17.71 271.54 C16.88 272.1 16.04 272.66 15.18 273.23 C3.39 280.76 -9.75 284.56 -23.29 287.54 C-24.06 287.72 -24.83 287.89 -25.63 288.07 C-55.71 293.34 -85.49 284.86 -110.46 268.45 C-135.67 250.49 -152.88 223.65 -158.33 193.12 C-159.78 183.5 -159.53 173.85 -159.48 164.14 C-159.48 162.1 -159.47 160.06 -159.47 158.01 C-159.46 152.67 -159.44 147.34 -159.42 142 C-159.4 135.57 -159.39 129.14 -159.38 122.72 C-159.36 112.99 -159.32 103.27 -159.29 93.54 C-143.45 93.54 -127.61 93.54 -111.29 93.54 C-111.34 89.97 -111.4 86.4 -111.46 82.73 C-111.5 79.22 -111.53 75.71 -111.56 72.2 C-111.58 69.79 -111.62 67.38 -111.66 64.96 C-111.91 50.92 -111.83 38.61 -106.29 25.54 C-105.89 24.57 -105.49 23.61 -105.07 22.61 C-97.47 5.16 -81.63 -5.74 -64.54 -12.56 C-42.68 -19.39 -17.79 -13.94 0 0 Z " fill="#F1B00C" transform="translate(324.28515625,14.4609375)"/>
<path d="M0 0 C15.84 0 31.68 0 48 0 C48.05 6.08 48.1 12.16 48.15 18.43 C48.18 22.29 48.22 26.16 48.26 30.03 C48.32 36.16 48.38 42.3 48.42 48.43 C48.46 53.37 48.51 58.32 48.56 63.27 C48.58 65.15 48.59 67.03 48.6 68.91 C48.75 92.23 52.89 110.17 69.19 127.69 C79.1 137.14 90.05 141.57 103 145 C103.66 145.2 104.32 145.4 105 145.61 C121.18 148.74 139.04 143.89 152.69 135.19 C166.61 125.29 177.87 111.17 181.07 94.01 C182.5 84.99 182.36 75.91 182.41 66.8 C182.43 64.86 182.45 62.93 182.47 61 C182.52 55.95 182.56 50.9 182.6 45.85 C182.65 39.77 182.71 33.69 182.77 27.61 C182.86 18.4 182.93 9.2 183 0 C199.17 0 215.34 0 232 0 C232.16 21.66 232.16 21.66 232.2 31.02 C232.22 37.36 232.25 43.7 232.3 50.04 C232.35 55.16 232.37 60.28 232.38 65.41 C232.39 67.34 232.4 69.28 232.42 71.22 C232.81 106.84 221.35 137.38 196.56 163.06 C184.48 175.15 170.14 183.56 154 189 C152.35 189.58 152.35 189.58 150.68 190.17 C123.15 199.34 92.25 196.89 66 185 C60.76 182.37 55.84 179.29 51 176 C49.95 175.29 48.91 174.58 47.83 173.85 C26.76 158.76 13.4 138.59 5.12 114.25 C4.84 113.41 4.55 112.57 4.26 111.71 C-0.15 98.1 -0.27 84.86 -0.2 70.7 C-0.19 68.66 -0.19 66.61 -0.19 64.57 C-0.18 59.22 -0.16 53.87 -0.14 48.53 C-0.11 42.09 -0.1 35.66 -0.09 29.22 C-0.07 19.48 -0.03 9.74 0 0 Z " fill="#FEFEFE" transform="translate(844,108)"/>
<path d="M0 0 C15.84 0 31.68 0 48 0 C48.06 9.19 48.06 9.19 48.11 18.57 C48.14 22.48 48.17 26.39 48.21 30.29 C48.26 36.48 48.31 42.66 48.35 48.85 C48.37 53.84 48.41 58.83 48.46 63.83 C48.48 65.72 48.49 67.62 48.5 69.51 C48.57 89.23 51.69 106 64 122 C64.72 123.01 65.44 124.02 66.19 125.06 C77.32 137.86 94.15 144.78 110.71 146.35 C125.45 146.91 140.72 143.37 153 135 C153.84 134.44 154.67 133.88 155.53 133.3 C169.67 122.91 178.1 107.43 181.52 90.39 C182.09 86.35 182.18 82.41 182.21 78.33 C182.22 77.48 182.23 76.63 182.24 75.76 C182.27 72.97 182.29 70.17 182.32 67.38 C182.34 65.44 182.36 63.5 182.38 61.56 C182.43 56.46 182.48 51.36 182.53 46.26 C182.59 40.13 182.66 34.01 182.72 27.88 C182.82 18.59 182.91 9.29 183 0 C198.84 0 214.68 0 231 0 C231.12 22.57 231.12 22.57 231.15 32.28 C231.16 38.87 231.19 45.47 231.23 52.06 C231.26 57.38 231.28 62.71 231.28 68.03 C231.29 70.05 231.3 72.07 231.32 74.09 C231.43 89.09 230.6 103.41 225.25 117.62 C224.99 118.32 224.74 119.02 224.47 119.74 C218.46 135.7 209.67 148.63 198 161 C197.06 162.03 197.06 162.03 196.11 163.09 C190.46 169.09 183.87 173.53 177 178 C176.16 178.56 175.33 179.12 174.47 179.69 C162.67 187.22 149.54 191.02 136 194 C135.23 194.18 134.45 194.35 133.66 194.53 C103.57 199.8 73.8 191.32 48.82 174.91 C23.62 156.95 6.41 130.11 0.95 99.58 C-0.49 89.96 -0.25 80.31 -0.2 70.61 C-0.19 68.56 -0.19 66.52 -0.19 64.47 C-0.18 59.14 -0.16 53.8 -0.14 48.46 C-0.11 42.03 -0.1 35.61 -0.09 29.18 C-0.07 19.45 -0.03 9.73 0 0 Z " fill="#FEFEFE" transform="translate(165,108)"/>
</svg>
