<?xml version="1.0" encoding="UTF-8"?>
<!-- Generator: visioncortex VTracer 0.6.4 -->
<svg version="1.1" xmlns="http://www.w3.org/2000/svg" width="672" height="697">
<path d="M0 0 C14.36 10.83 21.75 24.71 24.89 42.1 C25.44 47.11 25.34 52.18 25.34 57.22 C39.2 57.22 53.06 57.22 67.34 57.22 C67.34 51.28 67.34 45.34 67.34 39.22 C71 21.96 79.62 8.07 94.34 -1.78 C111.34 -11.39 130.43 -13.82 149.53 -9.22 C165.84 -4.05 179.07 6.99 187.03 22.09 C192.65 33.87 193.34 44.07 193.34 57.22 C207.2 57.22 221.06 57.22 235.34 57.22 C235.34 51.61 235.34 46 235.34 40.22 C237.91 26.48 244.34 14.93 254.34 5.22 C254.88 4.66 255.42 4.1 255.98 3.52 C267.95 -7.98 284.58 -11.28 300.55 -11.13 C317.78 -10.67 332.52 -4.8 344.71 7.4 C355.97 19.49 361.52 33.59 361.38 50.04 C361.38 51.08 361.38 51.08 361.37 52.14 C361.37 53.83 361.35 55.53 361.34 57.22 C362.56 57.2 363.79 57.18 365.05 57.16 C369.66 57.08 374.27 57.04 378.89 57 C380.87 56.98 382.85 56.95 384.84 56.92 C408.78 56.51 427.12 61.68 444.96 78.53 C451.16 85.02 455.53 92.12 459.15 100.28 C459.59 101.25 459.59 101.25 460.03 102.25 C463.36 110.06 464.64 117.67 464.59 126.13 C464.6 127.41 464.6 127.41 464.6 128.72 C464.61 131.57 464.61 134.42 464.6 137.27 C464.6 139.34 464.61 141.41 464.61 143.48 C464.62 149.16 464.62 154.84 464.62 160.51 C464.61 166.64 464.62 172.77 464.63 178.89 C464.64 190.89 464.64 202.9 464.64 214.9 C464.64 224.65 464.64 234.41 464.65 244.16 C464.65 245.56 464.65 246.97 464.65 248.37 C464.65 250.48 464.65 252.6 464.65 254.71 C464.66 274.35 464.66 294 464.66 313.64 C464.66 314.38 464.66 315.12 464.66 315.89 C464.66 319.64 464.66 323.39 464.66 327.14 C464.66 327.89 464.66 328.63 464.66 329.4 C464.66 330.91 464.66 332.42 464.65 333.92 C464.65 357.37 464.66 380.81 464.68 404.25 C464.7 430.61 464.71 456.96 464.7 483.31 C464.7 486.12 464.7 488.93 464.7 491.74 C464.7 492.43 464.7 493.12 464.7 493.84 C464.7 504.28 464.71 514.71 464.72 525.15 C464.73 537.03 464.73 548.9 464.72 560.78 C464.71 566.83 464.71 572.89 464.72 578.95 C464.74 584.5 464.73 590.05 464.72 595.6 C464.72 597.6 464.72 599.6 464.73 601.61 C464.78 615.38 464.21 628.03 457.59 640.47 C457.24 641.14 456.89 641.82 456.53 642.52 C453.66 647.9 450.45 652.7 446.34 657.22 C445.66 657.98 444.99 658.73 444.29 659.51 C432.61 671.89 415.85 680.74 398.67 681.49 C392.86 681.65 387.05 681.62 381.24 681.61 C378.98 681.61 376.73 681.62 374.47 681.62 C368.29 681.64 362.12 681.63 355.94 681.63 C349.95 681.62 343.97 681.63 337.98 681.64 C324.99 681.66 311.99 681.66 299 681.66 C287.63 681.65 276.25 681.65 264.88 681.66 C263.35 681.66 261.83 681.66 260.3 681.66 C258 681.66 255.7 681.66 253.39 681.66 C232 681.68 210.61 681.68 189.22 681.67 C188.42 681.67 187.61 681.67 186.78 681.67 C180.24 681.67 173.69 681.67 167.15 681.66 C141.63 681.65 116.11 681.66 90.59 681.69 C61.9 681.71 33.21 681.72 4.52 681.72 C1.46 681.72 -1.6 681.72 -4.67 681.72 C-5.42 681.71 -6.17 681.71 -6.95 681.71 C-18.31 681.71 -29.67 681.72 -41.03 681.73 C-53.96 681.75 -66.89 681.75 -79.81 681.73 C-86.41 681.72 -93 681.72 -99.59 681.74 C-105.63 681.75 -111.67 681.75 -117.71 681.73 C-119.89 681.72 -122.07 681.72 -124.25 681.74 C-147.73 681.84 -168.39 677.28 -185.66 660.22 C-202.04 642.1 -206.13 622.55 -206.05 598.74 C-206.05 596.67 -206.06 594.6 -206.06 592.54 C-206.08 586.88 -206.07 581.23 -206.07 575.57 C-206.06 569.47 -206.07 563.36 -206.09 557.25 C-206.1 545.99 -206.1 534.72 -206.1 523.45 C-206.09 513.05 -206.09 502.64 -206.1 492.23 C-206.1 490.83 -206.1 489.43 -206.1 488.03 C-206.1 485.92 -206.11 483.82 -206.11 481.71 C-206.12 462.13 -206.12 442.54 -206.11 422.96 C-206.11 422.22 -206.11 421.49 -206.11 420.73 C-206.11 414.74 -206.11 408.75 -206.11 402.76 C-206.1 379.4 -206.1 356.04 -206.13 332.69 C-206.15 306.42 -206.17 280.15 -206.16 253.89 C-206.16 251.08 -206.16 248.28 -206.16 245.48 C-206.16 244.79 -206.16 244.1 -206.16 243.39 C-206.15 232.99 -206.16 222.59 -206.17 212.19 C-206.19 200.36 -206.19 188.53 -206.17 176.7 C-206.16 170.66 -206.16 164.63 -206.18 158.6 C-206.19 153.07 -206.19 147.54 -206.17 142.01 C-206.16 140.02 -206.17 138.02 -206.18 136.03 C-206.28 114.73 -201.91 95.98 -186.72 80.22 C-185.38 78.88 -184.02 77.55 -182.66 76.22 C-182.03 75.55 -181.39 74.89 -180.74 74.2 C-176.72 70.26 -172.12 67.62 -167.16 65.03 C-166.56 64.71 -165.96 64.39 -165.35 64.06 C-151.16 57.03 -136.65 56.68 -121.16 56.97 C-119.26 56.99 -117.36 57.01 -115.45 57.02 C-110.85 57.07 -106.26 57.14 -101.66 57.22 C-101.67 56.42 -101.68 55.63 -101.68 54.8 C-101.78 38.74 -98.56 25.18 -88.66 12.22 C-88.11 11.48 -87.56 10.74 -86.99 9.98 C-66.32 -15.54 -26.21 -17.55 0 0 Z M-52.66 37.22 C-57.29 44.43 -57.25 51.79 -57.19 60.12 C-57.2 61.44 -57.2 62.76 -57.2 64.12 C-57.21 66.91 -57.2 69.68 -57.18 72.47 C-57.16 76.01 -57.17 79.55 -57.2 83.09 C-57.21 86.49 -57.2 89.9 -57.19 93.31 C-57.2 94.57 -57.21 95.83 -57.22 97.13 C-57.13 105.03 -56.5 112.08 -50.92 118.09 C-47.14 121.58 -43.63 124.18 -38.34 124.25 C-32.75 123.92 -28.97 123.03 -24.66 119.22 C-20.27 113.98 -18.54 110.06 -18.48 103.13 C-18.47 101.87 -18.46 100.62 -18.44 99.33 C-18.44 97.95 -18.43 96.58 -18.42 95.21 C-18.42 94.51 -18.41 93.82 -18.41 93.11 C-18.39 89.43 -18.37 85.76 -18.36 82.09 C-18.35 78.31 -18.32 74.53 -18.28 70.75 C-18.25 67.84 -18.25 64.92 -18.24 62 C-18.24 60.61 -18.23 59.22 -18.21 57.83 C-18.09 48.85 -18.34 42.23 -24.41 35.2 C-28.44 31.97 -31.79 29.6 -37.04 28.91 C-43.1 29.63 -48.65 32.61 -52.66 37.22 Z M116.39 36.41 C112.58 42 111.23 46.16 111.16 52.93 C111.15 54.08 111.14 55.23 111.12 56.41 C111.12 57.65 111.11 58.89 111.1 60.16 C111.09 61.44 111.09 62.72 111.08 64.04 C111.06 66.76 111.05 69.47 111.04 72.18 C111.03 75.63 111 79.08 110.96 82.53 C110.93 85.84 110.92 89.16 110.91 92.48 C110.9 93.7 110.88 94.93 110.86 96.19 C110.88 104.17 111.52 111.97 117.08 118.15 C121.23 121.98 125.01 123.96 130.65 124.59 C136.15 124.03 140.2 122.4 144.11 118.42 C150.53 110.37 150.65 102.6 150.64 92.64 C150.65 90.82 150.65 90.82 150.65 88.97 C150.66 86.42 150.66 83.87 150.66 81.31 C150.65 77.43 150.68 73.55 150.7 69.66 C150.7 67.17 150.7 64.69 150.7 62.2 C150.71 61.05 150.72 59.9 150.73 58.71 C150.68 50.08 150.12 41.9 144.09 35.28 C140.19 31.79 136.28 29.45 130.94 29.03 C125.29 29.44 120.13 32.2 116.39 36.41 Z M285.5 34.87 C280.9 40 279.1 44.49 279.05 51.44 C279.04 52.68 279.02 53.91 279.01 55.19 C279.01 56.53 279.01 57.87 279 59.21 C279 60.59 278.99 61.98 278.98 63.37 C278.97 66.27 278.97 69.17 278.97 72.07 C278.97 75.78 278.94 79.48 278.91 83.18 C278.89 86.04 278.88 88.9 278.88 91.77 C278.88 93.13 278.87 94.49 278.86 95.86 C278.76 104.74 279.08 111.29 285.09 118.24 C289.31 121.62 292.68 123.86 298.15 124.59 C305.11 123.77 309.71 120.39 314.11 115.1 C316.88 110.86 317.6 107.14 317.65 102.12 C317.66 100.91 317.68 99.7 317.69 98.46 C317.7 97.16 317.71 95.86 317.71 94.52 C317.72 93.16 317.73 91.8 317.74 90.44 C317.75 87.6 317.76 84.75 317.77 81.9 C317.77 78.28 317.81 74.66 317.85 71.03 C317.88 68.22 317.89 65.42 317.89 62.61 C317.9 60.63 317.93 58.65 317.96 56.68 C317.91 47.79 316.53 40.49 310.13 33.96 C301.27 28.61 293.65 27.54 285.5 34.87 Z M-161.66 223.22 C-161.74 287.32 -161.83 351.42 -161.91 417.47 C-161.95 437.72 -161.98 457.97 -162.02 478.84 C-162.03 496.97 -162.03 496.97 -162.04 515.1 C-162.05 523.18 -162.06 531.27 -162.08 539.35 C-162.11 548.68 -162.12 558 -162.11 567.33 C-162.11 572.1 -162.12 576.87 -162.14 581.64 C-162.16 585.95 -162.16 590.27 -162.14 594.59 C-162.14 596.14 -162.15 597.7 -162.16 599.26 C-162.26 611.88 -160.82 623.78 -151.66 633.22 C-141.57 642.4 -130.89 644.38 -117.66 644.35 C-116.79 644.35 -115.91 644.35 -115.01 644.35 C-112.08 644.36 -109.15 644.35 -106.22 644.35 C-104.1 644.35 -101.97 644.36 -99.85 644.36 C-94.02 644.37 -88.19 644.37 -82.35 644.36 C-76.06 644.36 -69.77 644.37 -63.48 644.37 C-51.16 644.38 -38.83 644.39 -26.51 644.39 C-16.49 644.39 -6.47 644.39 3.54 644.39 C6.43 644.39 9.31 644.39 12.2 644.39 C12.91 644.39 13.63 644.39 14.37 644.39 C34.54 644.4 54.7 644.4 74.87 644.4 C76.01 644.4 76.01 644.4 77.17 644.4 C81.03 644.4 84.88 644.4 88.73 644.4 C89.5 644.4 90.26 644.4 91.05 644.4 C92.6 644.4 94.15 644.4 95.69 644.4 C119.77 644.4 143.84 644.41 167.92 644.42 C194.97 644.44 222.02 644.45 249.08 644.45 C251.96 644.45 254.85 644.45 257.73 644.45 C258.44 644.45 259.15 644.45 259.89 644.45 C271.31 644.45 282.74 644.45 294.17 644.46 C305.65 644.47 317.14 644.47 328.62 644.47 C334.85 644.46 341.07 644.46 347.29 644.47 C352.98 644.48 358.68 644.48 364.38 644.47 C366.44 644.47 368.5 644.47 370.55 644.47 C393.07 644.79 393.07 644.79 412.45 634.33 C423.41 622.45 423.65 608.69 423.54 593.24 C423.54 591.64 423.54 590.05 423.54 588.45 C423.53 584.07 423.51 579.7 423.49 575.33 C423.47 570.53 423.46 565.73 423.45 560.94 C423.42 551.64 423.39 542.34 423.35 533.04 C423.31 522.27 423.28 511.51 423.25 500.75 C423.17 472.34 423.06 443.94 422.96 415.53 C422.76 352.07 422.55 288.61 422.34 223.22 C229.62 223.22 36.9 223.22 -161.66 223.22 Z " fill="#001A5F" transform="translate(205.66015625,12.78125)"/>
<path d="M0 0 C0.84 -0.01 1.67 -0.01 2.53 -0.02 C5.29 -0.03 8.05 -0.03 10.81 -0.03 C12.74 -0.03 14.66 -0.03 16.58 -0.04 C20.62 -0.05 24.65 -0.05 28.68 -0.04 C33.84 -0.04 38.99 -0.05 44.14 -0.08 C48.12 -0.09 52.09 -0.09 56.07 -0.09 C57.97 -0.09 59.87 -0.09 61.77 -0.1 C64.43 -0.12 67.09 -0.11 69.76 -0.1 C70.53 -0.11 71.31 -0.11 72.11 -0.12 C78.15 -0.06 83.75 1.02 88.6 4.89 C89.04 5.45 89.49 6.01 89.95 6.59 C90.64 7.42 90.64 7.42 91.35 8.26 C94.49 13.41 94.87 18.57 94.85 24.46 C94.85 25.26 94.86 26.06 94.86 26.89 C94.88 29.51 94.88 32.14 94.87 34.77 C94.88 36.61 94.88 38.44 94.89 40.28 C94.89 44.12 94.89 47.96 94.89 51.8 C94.88 56.72 94.9 61.63 94.92 66.55 C94.94 70.33 94.94 74.12 94.94 77.91 C94.94 79.72 94.94 81.54 94.95 83.35 C94.96 85.88 94.96 88.42 94.95 90.96 C94.95 91.7 94.96 92.44 94.97 93.2 C94.9 99.62 93.42 104.13 89.2 109.02 C82.57 114.71 77.09 115.42 68.54 115.45 C67.75 115.46 66.96 115.46 66.14 115.47 C63.52 115.49 60.9 115.5 58.28 115.51 C57.38 115.52 56.48 115.52 55.56 115.53 C50.8 115.55 46.04 115.56 41.28 115.57 C36.39 115.58 31.5 115.62 26.6 115.65 C22.82 115.68 19.04 115.69 15.26 115.69 C13.46 115.7 11.65 115.71 9.85 115.73 C-11.49 115.93 -11.49 115.93 -18.37 109.44 C-22.96 104.36 -23.58 100.83 -23.59 94.06 C-23.59 93.22 -23.6 92.37 -23.6 91.49 C-23.62 88.67 -23.62 85.86 -23.63 83.04 C-23.64 81.08 -23.64 79.13 -23.65 77.17 C-23.66 73.07 -23.66 68.96 -23.67 64.86 C-23.67 59.6 -23.7 54.34 -23.73 49.09 C-23.74 45.04 -23.75 41 -23.75 36.96 C-23.75 35.02 -23.76 33.08 -23.77 31.15 C-23.79 28.43 -23.79 25.72 -23.78 23 C-23.79 22.2 -23.8 21.41 -23.81 20.58 C-23.77 14.95 -22.67 10.76 -18.78 6.45 C-18.21 5.98 -17.64 5.51 -17.05 5.02 C-16.21 4.31 -16.21 4.31 -15.34 3.57 C-10.43 0.24 -5.79 -0.02 0 0 Z " fill="#001A5F" transform="translate(301.427001953125,469.725341796875)"/>
<path d="M0 0 C0.84 -0.01 1.68 -0.01 2.54 -0.02 C5.3 -0.03 8.06 -0.03 10.81 -0.03 C12.74 -0.03 14.67 -0.03 16.59 -0.04 C20.62 -0.05 24.65 -0.05 28.68 -0.04 C33.84 -0.04 38.99 -0.05 44.15 -0.08 C48.12 -0.09 52.1 -0.09 56.07 -0.09 C57.97 -0.09 59.87 -0.09 61.77 -0.1 C64.44 -0.12 67.1 -0.11 69.76 -0.1 C70.54 -0.11 71.32 -0.11 72.12 -0.12 C79.43 -0.05 85.03 2.16 90.44 7.27 C94.33 12.83 94.6 17.57 94.62 24.22 C94.63 25.02 94.63 25.82 94.64 26.64 C94.66 29.27 94.67 31.91 94.68 34.54 C94.69 35.44 94.69 36.34 94.69 37.27 C94.72 42.05 94.73 46.82 94.74 51.6 C94.75 56.52 94.78 61.44 94.82 66.36 C94.85 70.15 94.86 73.95 94.86 77.74 C94.87 79.55 94.88 81.37 94.9 83.18 C94.92 85.72 94.92 88.27 94.91 90.81 C94.93 91.55 94.94 92.29 94.95 93.06 C94.89 99.38 92.8 104.43 88.77 109.3 C87.96 109.97 87.96 109.97 87.13 110.65 C86.33 111.34 86.33 111.34 85.52 112.05 C80.12 115.24 74.29 115.57 68.17 115.55 C66.98 115.56 66.98 115.56 65.76 115.56 C63.15 115.58 60.53 115.58 57.92 115.58 C56.09 115.58 54.26 115.58 52.43 115.59 C48.6 115.6 44.78 115.6 40.95 115.59 C36.06 115.58 31.17 115.6 26.29 115.62 C22.51 115.64 18.73 115.64 14.96 115.64 C13.15 115.64 11.35 115.64 9.55 115.65 C-11.29 115.76 -11.29 115.76 -17.93 110.34 C-18.47 109.66 -19 108.98 -19.56 108.27 C-20.11 107.59 -20.67 106.91 -21.24 106.21 C-24.06 102.05 -23.72 97.79 -23.73 92.97 C-23.74 92.12 -23.75 91.27 -23.75 90.4 C-23.77 87.59 -23.78 84.78 -23.79 81.98 C-23.8 80.54 -23.8 80.54 -23.81 79.07 C-23.83 73.99 -23.84 68.91 -23.85 63.84 C-23.86 58.6 -23.9 53.36 -23.94 48.12 C-23.96 44.08 -23.97 40.05 -23.97 36.01 C-23.98 34.08 -23.99 32.15 -24.01 30.22 C-24.03 27.51 -24.03 24.81 -24.03 22.1 C-24.04 21.31 -24.05 20.51 -24.07 19.7 C-24.01 14.11 -22.72 10.9 -19.56 6.27 C-13.82 0.69 -7.74 -0.02 0 0 Z " fill="#001A5F" transform="translate(465.556396484375,469.725341796875)"/>
<path d="M0 0 C0.84 -0.01 1.67 -0.01 2.53 -0.02 C5.3 -0.04 8.06 -0.05 10.83 -0.06 C11.77 -0.07 12.72 -0.07 13.69 -0.07 C18.7 -0.09 23.71 -0.11 28.72 -0.12 C33.88 -0.13 39.04 -0.16 44.21 -0.2 C48.19 -0.23 52.16 -0.24 56.14 -0.24 C58.05 -0.25 59.95 -0.26 61.85 -0.28 C64.52 -0.3 67.19 -0.3 69.86 -0.29 C71.02 -0.31 71.02 -0.31 72.21 -0.33 C78.68 -0.27 83.91 1.68 88.75 6.03 C89.2 6.61 89.66 7.2 90.12 7.8 C90.6 8.39 91.07 8.98 91.56 9.59 C94.22 13.34 93.85 16.93 93.86 21.37 C93.87 22.22 93.88 23.07 93.88 23.94 C93.9 26.75 93.91 29.56 93.92 32.38 C93.93 33.34 93.93 34.3 93.94 35.29 C93.96 40.37 93.97 45.46 93.98 50.54 C93.99 55.79 94.03 61.04 94.07 66.28 C94.09 70.32 94.1 74.36 94.1 78.4 C94.11 80.33 94.12 82.27 94.14 84.2 C94.16 86.91 94.16 89.62 94.16 92.34 C94.17 93.13 94.18 93.93 94.2 94.74 C94.13 101.75 91.89 105.97 86.87 110.99 C81.1 114.95 75.26 115.47 68.42 115.45 C67.22 115.46 67.22 115.46 66 115.47 C63.39 115.48 60.78 115.48 58.16 115.48 C56.33 115.48 54.5 115.49 52.68 115.49 C48.85 115.5 45.02 115.5 41.19 115.49 C36.3 115.49 31.42 115.5 26.53 115.53 C22.75 115.54 18.98 115.54 15.2 115.54 C13.4 115.54 11.6 115.55 9.8 115.56 C0.08 115.6 -8.42 115.63 -17.31 111.18 C-17.31 110.52 -17.31 109.86 -17.31 109.18 C-17.97 109.18 -18.63 109.18 -19.31 109.18 C-22.97 102.92 -24.46 98.65 -24.47 91.33 C-24.48 90.53 -24.48 89.73 -24.49 88.91 C-24.5 86.26 -24.51 83.62 -24.52 80.97 C-24.52 79.13 -24.53 77.29 -24.53 75.45 C-24.54 71.59 -24.55 67.73 -24.55 63.87 C-24.56 58.94 -24.58 54 -24.61 49.06 C-24.63 45.26 -24.64 41.46 -24.64 37.66 C-24.64 35.84 -24.65 34.02 -24.66 32.2 C-24.68 29.65 -24.68 27.09 -24.67 24.54 C-24.68 23.8 -24.69 23.05 -24.7 22.28 C-24.64 15.01 -22.34 9.5 -17.31 4.18 C-11.67 0.23 -6.74 0.02 0 0 Z " fill="#001A5F" transform="translate(137.3134765625,469.822998046875)"/>
<path d="M0 0 C0.89 -0.01 1.78 -0.01 2.69 -0.02 C5.61 -0.04 8.52 -0.02 11.44 0 C13.47 0 15.51 -0 17.55 -0.01 C21.81 -0.01 26.06 0.01 30.32 0.03 C35.77 0.07 41.23 0.06 46.68 0.04 C50.88 0.03 55.08 0.04 59.28 0.06 C61.29 0.06 63.3 0.06 65.31 0.06 C68.12 0.05 70.93 0.07 73.74 0.1 C74.57 0.09 75.39 0.08 76.25 0.08 C82.31 0.18 85.87 1.91 90.35 6.16 C95.03 11.94 96.04 16.45 96.03 23.78 C96.04 24.59 96.05 25.4 96.05 26.23 C96.07 28.89 96.08 31.55 96.08 34.21 C96.08 36.07 96.09 37.93 96.1 39.78 C96.11 43.68 96.11 47.57 96.11 51.46 C96.11 56.43 96.14 61.4 96.17 66.38 C96.2 70.21 96.2 74.05 96.2 77.88 C96.2 79.72 96.21 81.55 96.23 83.38 C96.25 85.95 96.24 88.52 96.23 91.09 C96.24 91.84 96.25 92.59 96.26 93.36 C96.19 99.73 94.22 105.08 89.74 109.69 C89.08 110.14 88.42 110.6 87.74 111.07 C87.08 111.54 86.42 112.01 85.74 112.5 C81.22 115.05 76.48 114.79 71.41 114.79 C70.57 114.8 69.74 114.8 68.87 114.81 C66.1 114.82 63.34 114.83 60.57 114.83 C58.64 114.84 56.71 114.85 54.78 114.85 C50.74 114.86 46.7 114.87 42.65 114.87 C37.48 114.88 32.31 114.9 27.14 114.93 C23.16 114.95 19.17 114.95 15.19 114.95 C13.28 114.96 11.38 114.97 9.47 114.98 C6.8 115 4.13 114.99 1.46 114.99 C0.68 115 -0.1 115.01 -0.91 115.02 C-8.18 114.96 -13.94 112.8 -19.26 107.63 C-22.36 102.64 -22.7 98.69 -22.68 93 C-22.69 92.15 -22.7 91.31 -22.7 90.43 C-22.73 87.65 -22.73 84.86 -22.73 82.08 C-22.73 80.13 -22.74 78.19 -22.75 76.24 C-22.76 72.17 -22.77 68.09 -22.76 64.02 C-22.75 58.81 -22.78 53.61 -22.82 48.4 C-22.85 44.38 -22.85 40.37 -22.85 36.35 C-22.85 34.43 -22.86 32.51 -22.88 30.59 C-22.9 27.9 -22.89 25.21 -22.87 22.52 C-22.89 21.74 -22.9 20.95 -22.91 20.14 C-22.82 14.23 -21.19 10.09 -17.26 5.63 C-11.91 0.88 -6.98 -0.1 0 0 Z " fill="#001A5F" transform="translate(300.25830078125,308.368896484375)"/>
<path d="M0 0 C0.89 -0.01 1.78 -0.01 2.69 -0.02 C5.63 -0.04 8.57 -0.05 11.52 -0.06 C12.52 -0.07 13.53 -0.07 14.56 -0.07 C19.88 -0.09 25.2 -0.11 30.51 -0.12 C36 -0.13 41.49 -0.16 46.99 -0.2 C51.21 -0.23 55.43 -0.24 59.66 -0.24 C61.68 -0.25 63.7 -0.26 65.73 -0.28 C68.56 -0.3 71.4 -0.3 74.23 -0.29 C75.06 -0.31 75.9 -0.32 76.76 -0.33 C82.87 -0.28 86.41 1.43 90.92 5.7 C95.57 11.45 96.61 15.93 96.6 23.22 C96.61 24.02 96.61 24.81 96.62 25.63 C96.64 28.26 96.64 30.88 96.65 33.51 C96.65 35.34 96.66 37.17 96.67 39 C96.68 42.84 96.68 46.68 96.68 50.52 C96.68 55.42 96.71 60.33 96.74 65.23 C96.76 69.02 96.77 72.8 96.77 76.59 C96.77 78.39 96.78 80.2 96.79 82.01 C96.95 102.17 96.95 102.17 90.31 109.33 C89.65 109.78 88.99 110.22 88.31 110.68 C87.32 111.37 87.32 111.37 86.31 112.08 C81.77 114.57 77.04 114.33 71.98 114.34 C71.14 114.34 70.3 114.35 69.44 114.35 C66.67 114.37 63.9 114.37 61.13 114.38 C59.21 114.39 57.28 114.39 55.35 114.4 C51.31 114.41 47.26 114.41 43.22 114.42 C38.05 114.42 32.88 114.45 27.71 114.48 C23.72 114.49 19.74 114.5 15.76 114.5 C13.85 114.5 11.95 114.51 10.04 114.52 C7.37 114.54 4.7 114.54 2.03 114.53 C1.24 114.54 0.46 114.55 -0.34 114.56 C-6.8 114.51 -11.44 113.12 -16.44 108.8 C-21.02 103.46 -22.13 99.64 -22.09 92.64 C-22.1 91.79 -22.11 90.95 -22.12 90.07 C-22.13 87.28 -22.13 84.48 -22.12 81.68 C-22.13 79.74 -22.13 77.79 -22.14 75.84 C-22.15 71.75 -22.15 67.67 -22.14 63.59 C-22.13 58.36 -22.15 53.14 -22.17 47.91 C-22.19 43.89 -22.19 39.86 -22.19 35.84 C-22.19 33.91 -22.19 31.99 -22.21 30.06 C-22.22 27.36 -22.21 24.67 -22.19 21.97 C-22.2 21.18 -22.21 20.39 -22.22 19.58 C-22.14 13.34 -20.38 9.11 -16.09 4.43 C-10.69 0.26 -6.63 0.02 0 0 Z " fill="#001A5F" transform="translate(463.690673828125,308.822998046875)"/>
<path d="M0 0 C0.88 -0.01 1.77 -0.02 2.68 -0.02 C5.62 -0.05 8.56 -0.07 11.49 -0.08 C13 -0.09 13 -0.09 14.53 -0.1 C19.85 -0.12 25.16 -0.14 30.47 -0.16 C35.95 -0.17 41.43 -0.22 46.92 -0.27 C51.13 -0.3 55.35 -0.31 59.57 -0.32 C61.59 -0.33 63.61 -0.34 65.63 -0.37 C68.47 -0.4 71.3 -0.4 74.13 -0.39 C74.96 -0.41 75.79 -0.42 76.64 -0.44 C82.72 -0.38 86.72 1.4 91.45 5.19 C96.31 10.42 96.61 14.63 96.63 21.52 C96.64 22.37 96.64 23.21 96.65 24.09 C96.67 26.9 96.68 29.71 96.69 32.52 C96.7 33.49 96.7 34.45 96.71 35.44 C96.73 40.52 96.74 45.6 96.75 50.69 C96.76 55.94 96.8 61.19 96.83 66.43 C96.86 70.47 96.87 74.51 96.87 78.55 C96.88 80.48 96.89 82.42 96.91 84.35 C96.93 87.06 96.93 89.77 96.92 92.48 C96.94 93.28 96.95 94.07 96.96 94.9 C96.91 100.88 95.11 104.4 90.93 108.8 C85.04 113.56 80.47 114.49 73.01 114.47 C72.17 114.47 71.34 114.48 70.47 114.48 C67.71 114.5 64.94 114.5 62.18 114.49 C60.25 114.5 58.33 114.5 56.4 114.51 C52.36 114.51 48.33 114.51 44.29 114.51 C39.13 114.5 33.96 114.52 28.8 114.54 C24.82 114.56 20.84 114.56 16.86 114.56 C14.96 114.56 13.06 114.56 11.15 114.57 C8.49 114.58 5.82 114.58 3.16 114.57 C2.38 114.57 1.6 114.58 0.79 114.59 C-5.51 114.53 -9.81 112.85 -15.23 109.57 C-23.3 101.28 -22.13 90.22 -22.08 79.44 C-22.08 77.61 -22.08 75.78 -22.09 73.95 C-22.09 70.13 -22.09 66.31 -22.07 62.49 C-22.04 57.61 -22.06 52.73 -22.08 47.85 C-22.1 44.08 -22.09 40.3 -22.08 36.53 C-22.08 34.73 -22.08 32.93 -22.09 31.13 C-22.1 28.62 -22.09 26.1 -22.06 23.58 C-22.07 22.84 -22.08 22.11 -22.09 21.36 C-21.99 15.05 -19.93 9.84 -15.69 5.13 C-15.11 4.68 -14.52 4.22 -13.92 3.76 C-13.33 3.28 -12.74 2.81 -12.13 2.32 C-8.3 -0.4 -4.53 0.02 0 0 Z " fill="#001A5F" transform="translate(134.54541015625,308.80712890625)"/>
</svg>
